<svg xmlns="http://www.w3.org/2000/svg" id="Capa_1" width="512" height="512" viewBox="0 0 512 512"><g><g><g><circle cx="256" cy="256" r="248.5" fill="#b3e59f"/></g><g><circle cx="256" cy="256" r="208.419" fill="#95d6a4"/></g><path fill="#78c2a4" d="M316.12 260.009c-18.618 0-36.149 6.274-50.363 17.856a96.625 96.625 0 0 0-31.696-31.667c11.197-14.093 17.263-31.375 17.263-49.651 0-44.201-35.96-80.161-80.161-80.161s-80.161 35.96-80.161 80.161c0 23.589 10.275 45.618 27.926 60.757-19.743 18.124-31.267 43.904-31.267 70.842 0 53.041 43.152 96.194 96.194 96.194 27.326 0 53.344-11.781 71.492-31.957 15.138 17.668 37.166 27.95 60.773 27.95 44.201 0 80.161-35.961 80.161-80.161 0-44.203-35.96-80.163-80.161-80.163z"/><path fill="#95d6a4" d="M272.032 488.468c-137.243 0-248.5-111.258-248.5-248.5 0-64.543 24.616-123.33 64.959-167.509C38.728 117.901 7.5 183.3 7.5 256c0 137.242 111.257 248.5 248.5 248.5 72.7 0 138.099-31.228 183.541-80.991-44.179 40.343-102.966 64.959-167.509 64.959z"/><path fill="#78c2a4" d="M256 47.581c-62.145 0-117.899 27.23-156.086 70.372C136.683 85.409 185 65.618 237.963 65.618c115.107 0 208.419 93.312 208.419 208.419 0 52.963-19.791 101.28-52.335 138.048C437.188 373.9 464.418 318.144 464.418 256 464.419 140.893 371.107 47.581 256 47.581z"/><circle cx="183.855" cy="328.145" r="72.145" fill="#ffa95f"/><circle cx="183.855" cy="183.855" r="72.145" fill="#ffc269"/><circle cx="328.145" cy="183.855" r="72.145" fill="#ffa95f"/><circle cx="328.145" cy="328.145" r="72.145" fill="#ffc269"/><circle cx="256" cy="256" r="72.145" fill="#ffa95f"/></g><g><path d="M437.02 74.98C388.667 26.629 324.38 0 256 0S123.333 26.629 74.98 74.98C26.629 123.333 0 187.62 0 256s26.629 132.667 74.98 181.02C123.333 485.371 187.62 512 256 512s132.667-26.629 181.02-74.98C485.371 388.667 512 324.38 512 256s-26.629-132.667-74.98-181.02zm-10.607 351.433C380.894 471.932 320.374 497 256 497s-124.894-25.068-170.413-70.587S15 320.374 15 256 40.068 131.106 85.587 85.587 191.626 15 256 15s124.894 25.068 170.413 70.587S497 191.626 497 256s-25.068 124.894-70.587 170.413z"/><path d="M55.24 248.743c1.809-50.899 22.651-98.777 58.689-134.814s83.916-56.88 134.814-58.689c50.645-1.799 99.618 15.325 137.933 48.217a7.5 7.5 0 1 0 9.77-11.382c-41.182-35.353-93.822-53.749-148.236-51.826-54.703 1.944-106.159 24.344-144.888 63.073S42.193 193.507 40.25 248.21c-1.934 54.409 16.472 107.054 51.825 148.236a7.483 7.483 0 0 0 5.694 2.615 7.5 7.5 0 0 0 5.688-12.385c-32.893-38.315-50.016-87.301-48.217-137.933zM419.925 115.554a7.5 7.5 0 0 0-11.382 9.77c32.892 38.315 50.016 87.3 48.217 137.933-1.809 50.899-22.651 98.777-58.689 134.814s-83.916 56.88-134.814 58.689c-50.628 1.799-99.618-15.325-137.933-48.217a7.5 7.5 0 1 0-9.77 11.382c39.219 33.668 88.826 51.963 140.46 51.963 2.584 0 5.182-.046 7.775-.138 54.704-1.943 106.159-24.343 144.888-63.073 38.729-38.729 61.129-90.185 63.073-144.888 1.934-54.409-16.472-107.053-51.825-148.235z"/><path d="M407.791 183.855c0-43.917-35.729-79.646-79.646-79.646-19.893 0-38.94 7.375-53.633 20.765a7.5 7.5 0 0 0 10.103 11.087 64.483 64.483 0 0 1 43.53-16.852c.838 0 1.668.032 2.499.063 25.649 1.305 46.115 22.582 46.115 48.55 0 22.385-18.212 40.597-40.597 40.597-17.965 0-32.581-14.616-32.581-32.581 0-13.545 11.02-24.564 24.564-24.564 9.125 0 16.548 7.423 16.548 16.548 0 4.705-3.828 8.532-8.532 8.532a7.5 7.5 0 0 0 0 15c12.976 0 23.532-10.557 23.532-23.532 0-17.396-14.152-31.548-31.548-31.548-21.816 0-39.564 17.749-39.564 39.564 0 2.66.23 5.266.652 7.809a79.03 79.03 0 0 0-26.07-6.955c-3.635-40.571-37.806-72.483-79.307-72.483-43.917 0-79.646 35.729-79.646 79.646 0 31.879 18.835 59.429 45.955 72.145-27.119 12.716-45.955 40.266-45.955 72.145 0 43.917 35.729 79.646 79.646 79.646 31.879 0 59.429-18.835 72.145-45.955 12.716 27.119 40.266 45.955 72.145 45.955 43.917 0 79.646-35.729 79.646-79.646 0-31.879-18.835-59.429-45.955-72.145 27.118-12.716 45.954-40.266 45.954-72.145zM256 320.645c-35.646 0-64.645-29-64.645-64.645 0-.838.032-1.668.063-2.499 1.305-25.648 22.582-46.114 48.549-46.114 22.385 0 40.597 18.211 40.597 40.597 0 17.965-14.616 32.581-32.581 32.581-13.545 0-24.564-11.02-24.564-24.564 0-9.125 7.423-16.548 16.548-16.548 4.705 0 8.532 3.828 8.532 8.532a7.5 7.5 0 0 0 15 0c0-12.976-10.557-23.532-23.532-23.532-17.396 0-31.548 14.152-31.548 31.548 0 21.816 17.749 39.564 39.564 39.564 26.236 0 47.581-21.345 47.581-47.581 0-29.379-22.909-53.492-51.799-55.452A64.66 64.66 0 0 1 256 191.355c35.646 0 64.645 29 64.645 64.645S291.646 320.645 256 320.645zm-7.899-143.896a78.978 78.978 0 0 0-25.333 6.898 47.63 47.63 0 0 0 .652-7.809c0-29.378-22.909-53.493-51.799-55.453a64.657 64.657 0 0 1 12.234-1.177c33.243.001 60.696 25.228 64.246 57.541zm-128.892 7.106c0-.838.032-1.668.063-2.499 1.305-25.649 22.582-46.115 48.55-46.115 22.385 0 40.597 18.212 40.597 40.597 0 17.965-14.616 32.581-32.581 32.581-13.545 0-24.564-11.02-24.564-24.564 0-9.125 7.423-16.548 16.548-16.548 4.705 0 8.532 3.828 8.532 8.532a7.5 7.5 0 0 0 15 0c0-12.976-10.557-23.532-23.532-23.532-17.396 0-31.548 14.152-31.548 31.548 0 21.816 17.749 39.564 39.564 39.564 2.66 0 5.266-.23 7.809-.652a78.985 78.985 0 0 0-6.898 25.333c-32.313-3.549-57.54-31.002-57.54-64.245zm57.54 80.044a78.978 78.978 0 0 0 6.898 25.333 47.63 47.63 0 0 0-7.809-.652c-29.378 0-53.493 22.909-55.453 51.799a64.657 64.657 0 0 1-1.177-12.234c.001-33.243 25.228-60.696 57.541-64.246zm7.106 128.892c-.838 0-1.668-.032-2.499-.063-25.649-1.305-46.115-22.582-46.115-48.55 0-22.385 18.212-40.597 40.597-40.597 17.965 0 32.581 14.616 32.581 32.581 0 13.545-11.02 24.564-24.564 24.564-9.125 0-16.548-7.423-16.548-16.548 0-4.705 3.828-8.532 8.532-8.532a7.5 7.5 0 0 0 0-15c-12.976 0-23.532 10.557-23.532 23.532 0 17.396 14.152 31.548 31.548 31.548 21.816 0 39.564-17.749 39.564-39.564 0-2.66-.23-5.266-.652-7.809a78.985 78.985 0 0 0 25.333 6.898c-3.549 32.313-31.002 57.54-64.245 57.54zm80.044-57.54a78.978 78.978 0 0 0 25.333-6.898 47.63 47.63 0 0 0-.652 7.809c0 29.378 22.909 53.493 51.799 55.453a64.657 64.657 0 0 1-12.234 1.177c-33.243-.001-60.696-25.228-64.246-57.541zm128.892-7.106c0 .838-.032 1.668-.063 2.499-1.305 25.649-22.582 46.115-48.55 46.115-22.385 0-40.597-18.212-40.597-40.597 0-17.965 14.616-32.581 32.581-32.581 13.545 0 24.564 11.02 24.564 24.564 0 9.125-7.423 16.548-16.548 16.548-4.705 0-8.532-3.828-8.532-8.532a7.5 7.5 0 0 0-15 0c0 12.976 10.557 23.532 23.532 23.532 17.396 0 31.548-14.152 31.548-31.548 0-21.816-17.749-39.564-39.564-39.564-2.66 0-5.266.23-7.808.652a78.985 78.985 0 0 0 6.898-25.333c32.312 3.549 57.539 31.002 57.539 64.245zm-57.54-80.044a78.978 78.978 0 0 0-6.898-25.333c2.542.422 5.148.652 7.808.652 29.379 0 53.493-22.909 55.453-51.799a64.657 64.657 0 0 1 1.177 12.234c0 33.243-25.227 60.696-57.54 64.246z"/></g></g></svg>